<mxfile host="app.diagrams.net" modified="2023-12-02T04:49:29.561Z" agent="Mozilla/5.0 (Macintosh; Intel Mac OS X 10_15_7) AppleWebKit/537.36 (KHTML, like Gecko) Chrome/119.0.0.0 Safari/537.36" version="21.4.0" etag="RiCnoYu_E1cqAALVFYN8" type="github">
  <diagram name="페이지-1" id="Dhg5o85Xs6kbEqGewJDq">
    <mxGraphModel>
      <root>
        <mxCell id="0" />
        <mxCell id="1" parent="0" />
      </root>
    </mxGraphModel>
  </diagram>
</mxfile>
